<svg width="512" height="512" version="1.1" xmlns="http://www.w3.org/2000/svg" desc="Created with imagetracer.js version 1.2.6" ><path fill="rgb(54,54,54)" stroke="rgb(54,54,54)" stroke-width="1" opacity="0.2196078431372549" d="M 143.5 0 L 146 0.5 L 143.5 1 L 143.5 0 Z " /><path fill="rgb(54,54,54)" stroke="rgb(54,54,54)" stroke-width="1" opacity="0.2196078431372549" d="M 366.5 0 L 369 0.5 L 366.5 1 L 366.5 0 Z " /><path fill="rgb(54,54,54)" stroke="rgb(54,54,54)" stroke-width="1" opacity="0.2196078431372549" d="M 382.5 5 L 383.5 7 L 382.5 5 Z " /><path fill="rgb(54,54,54)" stroke="rgb(54,54,54)" stroke-width="1" opacity="0.2196078431372549" d="M 124.5 8 L 122.5 11 L 124.5 8 Z " /><path fill="rgb(54,54,54)" stroke="rgb(54,54,54)" stroke-width="1" opacity="0.2196078431372549" d="M 387.5 8 L 388.5 10 L 387.5 8 Z " /><path fill="rgb(54,54,54)" stroke="rgb(54,54,54)" stroke-width="1" opacity="0.2196078431372549" d="M 120.5 11 L 113.5 19 L 120.5 11 Z " /><path fill="rgb(54,54,54)" stroke="rgb(54,54,54)" stroke-width="1" opacity="0.2196078431372549" d="M 391.5 11 L 398.5 19 L 391.5 11 Z " /><path fill="rgb(54,54,54)" stroke="rgb(54,54,54)" stroke-width="1" opacity="0.2196078431372549" d="M 112.5 20 L 111.5 22 L 112.5 20 Z " /><path fill="rgb(54,54,54)" stroke="rgb(54,54,54)" stroke-width="1" opacity="0.2196078431372549" d="M 399.5 20 L 400.5 22 L 399.5 20 Z " /><path fill="rgb(54,54,54)" stroke="rgb(54,54,54)" stroke-width="1" opacity="0.2196078431372549" d="M 151.5 34 L 361 34.5 L 151.5 35 L 151.5 34 Z " /><path fill="rgb(54,54,54)" stroke="rgb(54,54,54)" stroke-width="1" opacity="0.2196078431372549" d="M 142.5 38 L 140.5 41 L 142.5 38 Z " /><path fill="rgb(54,54,54)" stroke="rgb(54,54,54)" stroke-width="1" opacity="0.2196078431372549" d="M 369.5 38 L 371.5 41 L 369.5 38 Z " /><path fill="rgb(54,54,54)" stroke="rgb(54,54,54)" stroke-width="1" opacity="0.2196078431372549" d="M 139.5 42 L 139 43.5 L 138.5 45 L 138 43.5 L 139.5 42 Z " /><path fill="rgb(54,54,54)" stroke="rgb(54,54,54)" stroke-width="1" opacity="0.2196078431372549" d="M 102.5 44 L 103 46.5 L 102 46.5 L 102.5 44 Z " /><path fill="rgb(54,54,54)" stroke="rgb(54,54,54)" stroke-width="1" opacity="0.2196078431372549" d="M 409.5 44 L 410 46.5 L 409 46.5 L 409.5 44 Z " /><path fill="rgb(54,54,54)" stroke="rgb(54,54,54)" stroke-width="1" opacity="0.2196078431372549" d="M 170.5 68 L 171 102.5 L 170 102.5 L 170.5 68 Z " /><path fill="rgb(54,54,54)" stroke="rgb(54,54,54)" stroke-width="1" opacity="0.2196078431372549" d="M 341.5 68 L 342 102.5 L 341 102.5 L 341.5 68 Z " /><path fill="rgb(54,54,54)" stroke="rgb(54,54,54)" stroke-width="1" opacity="0.2196078431372549" d="M 170.5 136 L 171 170.5 L 170 170.5 L 170.5 136 Z " /><path fill="rgb(54,54,54)" stroke="rgb(54,54,54)" stroke-width="1" opacity="0.2196078431372549" d="M 341.5 136 L 342 170.5 L 341 170.5 L 341.5 136 Z " /><path fill="rgb(54,54,54)" stroke="rgb(54,54,54)" stroke-width="1" opacity="0.2196078431372549" d="M 170 204 L 341.5 204 L 342 204.5 L 342 238.5 L 341 238.5 L 341 205.5 L 340.5 205 L 171 205 L 170.5 239 L 170 204 Z " /><path fill="rgb(54,54,54)" stroke="rgb(54,54,54)" stroke-width="1" opacity="0.2196078431372549" d="M 238.5 409 L 239 443.5 L 238 443.5 L 238.5 409 Z " /><path fill="rgb(54,54,54)" stroke="rgb(54,54,54)" stroke-width="1" opacity="0.2196078431372549" d="M 273.5 409 L 274 443.5 L 273 443.5 L 273.5 409 Z " /><path fill="rgb(54,54,54)" stroke="rgb(54,54,54)" stroke-width="1" opacity="0.2196078431372549" d="M 102.5 465 L 103 467.5 L 102 467.5 L 102.5 465 Z " /><path fill="rgb(54,54,54)" stroke="rgb(54,54,54)" stroke-width="1" opacity="0.2196078431372549" d="M 409.5 465 L 410 467.5 L 409 467.5 L 409.5 465 Z " /><path fill="rgb(54,54,54)" stroke="rgb(54,54,54)" stroke-width="1" opacity="0.2196078431372549" d="M 140.5 471 L 142.5 474 L 140.5 471 Z " /><path fill="rgb(54,54,54)" stroke="rgb(54,54,54)" stroke-width="1" opacity="0.2196078431372549" d="M 371.5 471 L 369.5 474 L 371.5 471 Z " /><path fill="rgb(54,54,54)" stroke="rgb(54,54,54)" stroke-width="1" opacity="0.2196078431372549" d="M 151.5 477 L 361 477.5 L 151.5 478 L 151.5 477 Z " /><path fill="rgb(54,54,54)" stroke="rgb(54,54,54)" stroke-width="1" opacity="0.2196078431372549" d="M 111.5 490 L 112.5 492 L 111.5 490 Z " /><path fill="rgb(54,54,54)" stroke="rgb(54,54,54)" stroke-width="1" opacity="0.2196078431372549" d="M 400.5 490 L 399.5 492 L 400.5 490 Z " /><path fill="rgb(54,54,54)" stroke="rgb(54,54,54)" stroke-width="1" opacity="0.2196078431372549" d="M 113.5 493 L 120.5 501 L 113.5 493 Z " /><path fill="rgb(54,54,54)" stroke="rgb(54,54,54)" stroke-width="1" opacity="0.2196078431372549" d="M 398.5 493 L 391.5 501 L 398.5 493 Z " /><path fill="rgb(54,54,54)" stroke="rgb(54,54,54)" stroke-width="1" opacity="0.2196078431372549" d="M 122.5 501 L 124.5 504 L 122.5 501 Z " /><path fill="rgb(54,54,54)" stroke="rgb(54,54,54)" stroke-width="1" opacity="0.2196078431372549" d="M 388.5 502 L 387.5 504 L 388.5 502 Z " /><path fill="rgb(54,54,54)" stroke="rgb(54,54,54)" stroke-width="1" opacity="0.2196078431372549" d="M 128.5 505 L 129.5 507 L 128.5 505 Z " /><path fill="rgb(54,54,54)" stroke="rgb(54,54,54)" stroke-width="1" opacity="0.2196078431372549" d="M 383.5 505 L 382.5 507 L 383.5 505 Z " /><path fill="rgb(54,54,54)" stroke="rgb(54,54,54)" stroke-width="1" opacity="0.2196078431372549" d="M 143.5 511 L 146 511.5 L 143.5 512 L 143.5 511 Z " /><path fill="rgb(54,54,54)" stroke="rgb(54,54,54)" stroke-width="1" opacity="0.2196078431372549" d="M 366.5 511 L 369 511.5 L 366.5 512 L 366.5 511 Z " /><path fill="rgb(51,51,51)" stroke="rgb(51,51,51)" stroke-width="1" opacity="0.5882352941176471" d="M 409.5 47 L 410 50.5 L 409 50.5 L 409.5 47 Z " /><path fill="rgb(51,51,51)" stroke="rgb(51,51,51)" stroke-width="1" opacity="0.5882352941176471" d="M 136.5 52 L 137 459.5 L 136 459.5 L 136.5 52 Z " /><path fill="rgb(51,51,51)" stroke="rgb(51,51,51)" stroke-width="1" opacity="0.5882352941176471" d="M 375.5 52 L 376 459.5 L 375 459.5 L 375.5 52 Z " /><path fill="rgb(51,51,51)" stroke="rgb(51,51,51)" stroke-width="1" opacity="0.5882352941176471" d="M 171.5 170 L 341 170.5 L 171.5 171 L 171.5 170 Z " /><path fill="rgb(51,51,51)" stroke="rgb(51,51,51)" stroke-width="1" opacity="0.5882352941176471" d="M 409.5 461 L 410 464.5 L 409 464.5 L 409.5 461 Z " /><path fill="rgb(51,51,51)" stroke="rgb(51,51,51)" stroke-width="1" opacity="0.5882352941176471" d="M 110.5 488 L 111.5 490 L 110.5 488 Z " /><path fill="rgb(51,51,51)" stroke="rgb(51,51,51)" stroke-width="1" opacity="0.5882352941176471" d="M 398.5 492 L 397.5 494 L 398.5 492 Z " /><path fill="rgb(0,0,0)" stroke="rgb(0,0,0)" stroke-width="1" opacity="0" d="M 0 0 L 143 0.5 Q 123.2 4.7 113 18.5 L 105 32.5 L 102 44.5 L 102 467.5 Q 106 489.5 120.5 501 Q 129.2 508.8 143 511.5 L 0 512 L 0 0 Z " /><path fill="rgb(0,0,0)" stroke="rgb(0,0,0)" stroke-width="1" opacity="0" d="M 369.5 0 L 511.5 0 L 512 0.5 L 512 512 L 369 511.5 Q 388.8 507.3 399 493.5 L 407 479.5 L 410 467.5 L 410 44.5 Q 406 22.5 391.5 11 L 382.5 5 L 369.5 1 L 369.5 0 Z " /><path fill="rgb(0,0,0)" stroke="rgb(0,0,0)" stroke-width="1" opacity="0" d="M 149.5 35 L 362.5 35 Q 369 36.5 372 41.5 L 375 48.5 L 375 463.5 Q 373.2 471.1 367.5 475 L 362.5 477 L 149.5 477 Q 143 475.5 140 470.5 L 137 463.5 L 137 48.5 Q 138.9 40.9 144.5 37 L 149.5 35 Z M 170 68 L 170 103 L 171 103 L 342 103 L 342 69 L 342 68 L 170 68 Z M 170 136 L 170 171 L 171 171 L 342 171 L 342 137 L 342 136 L 170 136 Z M 170 204 L 170 239 L 171 239 L 342 239 L 342 205 L 342 204 L 170 204 Z M 238 409 L 238 444 L 274 444 L 274 409 L 238 409 Z " /><path fill="rgb(49,49,49)" stroke="rgb(49,49,49)" stroke-width="1" opacity="0.5764705882352941" d="M 171.5 102 L 341 102.5 L 171.5 103 L 171.5 102 Z " /><path fill="rgb(49,49,49)" stroke="rgb(49,49,49)" stroke-width="1" opacity="0.5764705882352941" d="M 171.5 136 L 341 136.5 L 171.5 137 L 171.5 136 Z " /><path fill="rgb(49,49,49)" stroke="rgb(49,49,49)" stroke-width="1" opacity="0.5764705882352941" d="M 239.5 409 L 273 409.5 L 239.5 410 L 239.5 409 Z " /><path fill="rgb(49,49,49)" stroke="rgb(49,49,49)" stroke-width="1" opacity="0.6" d="M 102.5 51 L 103 460.5 L 102 460.5 L 102.5 51 Z " /><path fill="rgb(49,49,49)" stroke="rgb(49,49,49)" stroke-width="1" opacity="0.6" d="M 409.5 51 L 410 460.5 L 409 460.5 L 409.5 51 Z " /><path fill="rgb(49,49,49)" stroke="rgb(49,49,49)" stroke-width="1" opacity="0.6" d="M 171.5 68 L 341 68.5 L 171.5 69 L 171.5 68 Z " /><path fill="rgb(49,49,49)" stroke="rgb(49,49,49)" stroke-width="1" opacity="0.6" d="M 239.5 443 L 273 443.5 L 239.5 444 L 239.5 443 Z " /><path fill="rgb(49,49,49)" stroke="rgb(49,49,49)" stroke-width="1" opacity="0.6" d="M 120.5 499 L 121.5 501 L 120.5 499 Z " /><path fill="rgb(49,49,49)" stroke="rgb(49,49,49)" stroke-width="1" opacity="0.6" d="M 391.5 499 L 390.5 501 L 391.5 499 Z " /><path fill="rgb(50,50,50)" stroke="rgb(50,50,50)" stroke-width="1" opacity="0.9294117647058824" d="M 149.5 0 L 153 0.5 L 149.5 1 L 149.5 0 Z " /><path fill="rgb(50,50,50)" stroke="rgb(50,50,50)" stroke-width="1" opacity="0.9294117647058824" d="M 359.5 0 L 363 0.5 L 359.5 1 L 359.5 0 Z " /><path fill="rgb(50,50,50)" stroke="rgb(50,50,50)" stroke-width="1" opacity="0.9294117647058824" d="M 124.5 9 L 123.5 11 L 124.5 9 Z " /><path fill="rgb(50,50,50)" stroke="rgb(50,50,50)" stroke-width="1" opacity="0.9294117647058824" d="M 120.5 12 L 115.5 18 L 120.5 12 Z " /><path fill="rgb(50,50,50)" stroke="rgb(50,50,50)" stroke-width="1" opacity="0.9294117647058824" d="M 391.5 12 L 396.5 18 L 391.5 12 Z " /><path fill="rgb(50,50,50)" stroke="rgb(50,50,50)" stroke-width="1" opacity="0.9294117647058824" d="M 141.5 38 L 140.5 40 L 141.5 38 Z " /><path fill="rgb(50,50,50)" stroke="rgb(50,50,50)" stroke-width="1" opacity="0.9294117647058824" d="M 171.5 238 L 341 238.5 L 171.5 239 L 171.5 238 Z " /><path fill="rgb(50,50,50)" stroke="rgb(50,50,50)" stroke-width="1" opacity="0.9294117647058824" d="M 115.5 494 L 119.5 499 L 115.5 494 Z " /><path fill="rgb(50,50,50)" stroke="rgb(50,50,50)" stroke-width="1" opacity="0.9294117647058824" d="M 396.5 494 L 392.5 499 L 396.5 494 Z " /><path fill="rgb(50,50,50)" stroke="rgb(50,50,50)" stroke-width="1" opacity="0.9294117647058824" d="M 123.5 501 L 124.5 503 L 123.5 501 Z " /><path fill="rgb(50,50,50)" stroke="rgb(50,50,50)" stroke-width="1" opacity="0.9294117647058824" d="M 388.5 501 L 387.5 503 L 388.5 501 Z " /><path fill="rgb(50,50,50)" stroke="rgb(50,50,50)" stroke-width="1" opacity="0.9294117647058824" d="M 149.5 511 L 153 511.5 L 149.5 512 L 149.5 511 Z " /><path fill="rgb(50,50,50)" stroke="rgb(50,50,50)" stroke-width="1" opacity="0.9294117647058824" d="M 359.5 511 L 363 511.5 L 359.5 512 L 359.5 511 Z " /><path fill="rgb(50,50,50)" stroke="rgb(50,50,50)" stroke-width="1" opacity="1" d="M 153.5 0 L 358.5 0 L 375.5 3 L 385.5 8 L 399 20.5 Q 406.6 29.9 409 44.5 L 409 467.5 Q 405 490 389.5 501 L 377.5 508 L 368.5 511 L 359.5 511 L 358.5 512 L 153.5 512 L 152.5 511 L 143.5 511 L 126.5 504 L 113 491.5 Q 105.4 482.1 103 467.5 L 103 44.5 Q 107 22 122.5 11 L 134.5 4 L 143.5 1 L 152.5 1 L 153.5 0 Z M 149 34 L 142 38 L 136 48 L 136 465 L 141 474 L 149 478 L 364 478 L 371 474 L 376 465 L 376 48 L 371 38 L 364 34 L 149 34 Z " /><path fill="rgb(50,50,50)" stroke="rgb(50,50,50)" stroke-width="1" opacity="1" d="M 171 69 L 340.5 69 L 341 69.5 L 341 102 L 171.5 102 L 171 101.5 L 171 69 Z " /><path fill="rgb(50,50,50)" stroke="rgb(50,50,50)" stroke-width="1" opacity="1" d="M 171 137 L 340.5 137 L 341 137.5 L 341 170 L 171.5 170 L 171 169.5 L 171 137 Z " /><path fill="rgb(50,50,50)" stroke="rgb(50,50,50)" stroke-width="1" opacity="1" d="M 171 205 L 340.5 205 L 341 205.5 L 341 238 L 171.5 238 L 171 237.5 L 171 205 Z " /><path fill="rgb(50,50,50)" stroke="rgb(50,50,50)" stroke-width="1" opacity="1" d="M 239 410 L 273 410 L 273 443 L 239 443 L 239 410 Z " /></svg>