<svg width="512" height="512" version="1.1" xmlns="http://www.w3.org/2000/svg" desc="Created with imagetracer.js version 1.2.6" ><path fill="rgb(0,0,0)" stroke="rgb(0,0,0)" stroke-width="1" opacity="0.9803921568627451" d="M 81.5 0 L 430.5 0 Q 443.4 2.6 450 11.5 L 456 25.5 L 456 486.5 Q 453.4 499.4 444.5 506 L 430.5 512 L 81.5 512 Q 68.6 509.4 62 500.5 L 56 486.5 L 56 25.5 Q 58.6 12.6 67.5 6 L 81.5 0 Z M 84 20 L 80 22 L 76 28 L 76 485 L 78 489 L 84 492 L 429 492 L 433 490 L 436 485 L 436 28 L 434 24 L 429 20 L 84 20 Z " /><path fill="rgb(0,0,0)" stroke="rgb(0,0,0)" stroke-width="1" opacity="0.9803921568627451" d="M 103.5 40 Q 111.5 39 114 43.5 Q 116.8 46.2 116 52.5 L 112.5 58 Q 109.8 60.8 103.5 60 L 98 56.5 Q 95.2 53.8 96 47.5 L 99.5 42 L 103.5 40 Z " /><path fill="rgb(0,0,0)" stroke="rgb(0,0,0)" stroke-width="1" opacity="0.9803921568627451" d="M 246.5 40 L 279.5 41 L 298.5 45 L 313.5 50 Q 346.8 64.2 369 89.5 Q 387.2 109.8 398 137.5 L 403 152.5 L 407 172.5 L 408 200.5 L 407 201.5 L 407 210.5 L 404 226.5 L 399 242.5 Q 392.8 259.3 383 272.5 L 403 293.5 Q 408.1 300.4 408 312.5 Q 405.8 325.8 397.5 333 Q 389.6 341.1 372.5 340 L 360.5 335 L 340.5 315 L 324.5 325 L 295.5 336 L 272.5 340 L 246.5 340 L 215.5 334 L 190.5 324 Q 166 311.5 148 292.5 Q 127.6 271.4 116 241.5 L 111 224.5 L 109 214.5 L 109 207.5 L 108 206.5 L 108 174.5 L 114 145.5 L 126 117.5 Q 138.7 94.7 157.5 78 Q 175.8 61.3 200.5 51 L 225.5 43 L 236.5 42 L 237.5 41 L 245.5 41 L 246.5 40 Z M 251 60 L 250 61 L 242 61 L 231 63 L 210 69 Q 190 77 175 89 Q 151 108 138 139 L 131 162 L 129 173 L 129 184 L 128 185 L 129 208 L 134 231 Q 142 255 157 274 Q 176 296 205 309 L 231 317 L 242 319 L 250 319 L 251 320 L 269 320 L 292 316 Q 311 311 326 301 L 293 268 L 288 256 Q 287 239 294 232 Q 301 222 315 220 L 327 221 L 338 227 L 369 258 Q 379 243 384 224 L 387 209 L 387 201 L 388 200 L 387 174 L 384 159 L 379 144 Q 369 119 352 101 Q 333 80 305 68 L 278 61 L 251 60 Z M 316 240 L 310 243 L 308 248 L 309 256 L 373 319 L 376 320 L 383 319 L 388 312 L 387 306 L 323 241 L 316 240 Z " /><path fill="rgb(0,0,0)" stroke="rgb(0,0,0)" stroke-width="1" opacity="0.9803921568627451" d="M 406.5 40 Q 415.4 39.1 418 44.5 L 419 53.5 L 414.5 59 L 406.5 60 L 400 54.5 L 399 49.5 L 400 45.5 L 404.5 41 L 406.5 40 Z " /><path fill="rgb(0,0,0)" stroke="rgb(0,0,0)" stroke-width="1" opacity="0.9803921568627451" d="M 252.5 160 Q 272 159 280 169.5 Q 287.5 177 288 191.5 L 286 200.5 L 277.5 213 Q 269.9 220.9 253.5 220 Q 239.6 217.4 233 207.5 L 228 195.5 L 228 183.5 Q 231.3 171.3 240.5 165 L 252.5 160 Z M 256 180 L 253 181 L 248 187 L 249 196 L 256 200 L 263 199 L 268 192 L 267 186 L 261 180 L 256 180 Z " /><path fill="rgb(0,0,0)" stroke="rgb(0,0,0)" stroke-width="1" opacity="0.9803921568627451" d="M 171.5 375 L 338.5 375 L 344 379.5 L 345 381.5 L 345 435.5 L 341.5 440 L 337.5 442 L 172.5 442 L 166 436.5 L 165 433.5 L 165 382.5 L 169.5 376 L 171.5 375 Z M 185 395 L 185 422 L 186 422 L 325 422 L 325 396 L 325 395 L 185 395 Z " /><path fill="rgb(0,0,0)" stroke="rgb(0,0,0)" stroke-width="1" opacity="0.9803921568627451" d="M 103.5 452 Q 111.5 451 114 455.5 Q 116.8 458.2 116 464.5 L 112.5 470 Q 109.8 472.8 103.5 472 L 98 468.5 Q 95.2 465.8 96 459.5 L 99.5 454 L 103.5 452 Z " /><path fill="rgb(0,0,0)" stroke="rgb(0,0,0)" stroke-width="1" opacity="0.9803921568627451" d="M 406.5 452 Q 415.4 451.1 418 456.5 L 419 465.5 L 414.5 471 L 406.5 472 L 400 466.5 L 399 461.5 L 400 457.5 L 404.5 453 L 406.5 452 Z " /><path fill="rgb(0,0,0)" stroke="rgb(0,0,0)" stroke-width="1" opacity="0" d="M 0 0 L 81 0.5 Q 68.2 2.7 62 11.5 L 56 25.5 L 56 486.5 Q 58.6 499.4 67.5 506 Q 72.6 510.4 81 511.5 L 0 512 L 0 0 Z " /><path fill="rgb(0,0,0)" stroke="rgb(0,0,0)" stroke-width="1" opacity="0" d="M 431.5 0 L 511.5 0 L 512 0.5 L 512 512 L 431 511.5 Q 443.8 509.3 450 500.5 L 456 486.5 L 456 25.5 Q 453.4 12.6 444.5 6 Q 440 1.5 431.5 1 L 431.5 0 Z " /><path fill="rgb(0,0,0)" stroke="rgb(0,0,0)" stroke-width="1" opacity="0" d="M 83.5 20 L 428.5 20 L 434 23.5 L 436 27.5 L 436 484.5 L 432.5 490 L 428.5 492 L 83.5 492 L 78 488.5 L 76 484.5 L 76 27.5 L 79.5 22 L 83.5 20 Z M 104 40 L 100 42 L 96 48 Q 95 54 98 57 L 104 60 Q 110 61 113 58 L 116 53 Q 117 46 114 44 Q 111 39 104 40 Z M 247 40 L 246 41 L 238 41 L 237 42 L 226 43 L 201 51 Q 176 61 158 78 Q 139 95 126 118 L 114 146 L 108 175 L 108 207 L 109 208 L 109 215 L 111 225 L 116 242 Q 128 271 148 293 Q 166 311 191 324 L 216 334 L 247 340 L 273 340 L 296 336 L 325 325 L 341 315 L 361 335 L 373 340 Q 390 341 398 333 Q 406 326 408 313 Q 408 300 403 294 L 383 273 Q 393 259 399 243 L 404 227 L 407 211 L 407 202 L 408 201 L 407 173 L 403 153 L 398 138 Q 387 110 369 90 Q 347 64 314 50 L 299 45 L 280 41 L 247 40 Z M 407 40 L 405 41 L 400 46 L 399 50 L 400 55 L 407 60 L 415 59 L 419 54 L 418 45 Q 415 39 407 40 Z M 172 375 L 170 376 L 165 383 L 165 434 L 166 437 L 173 442 L 338 442 L 342 440 L 345 436 L 345 382 L 344 380 L 339 375 L 172 375 Z M 104 452 L 100 454 L 96 460 Q 95 466 98 469 L 104 472 Q 110 473 113 470 L 116 465 Q 117 458 114 456 Q 111 451 104 452 Z M 407 452 L 405 453 L 400 458 L 399 462 L 400 467 L 407 472 L 415 471 L 419 466 L 418 457 Q 415 451 407 452 Z " /><path fill="rgb(0,0,0)" stroke="rgb(0,0,0)" stroke-width="1" opacity="0" d="M 250.5 60 L 277.5 61 L 304.5 68 Q 332.9 79.6 352 100.5 Q 369 118.5 379 143.5 L 384 158.5 L 387 173.5 L 388 199.5 L 387 200.5 L 387 208.5 L 384 223.5 Q 378.8 243.3 368.5 258 L 337.5 227 L 326.5 221 L 314.5 220 Q 300.8 222.3 294 231.5 Q 286.6 239.1 288 255.5 L 293 267.5 L 326 300.5 Q 311 310.5 291.5 316 L 268.5 320 L 250.5 320 L 249.5 319 L 241.5 319 L 230.5 317 L 204.5 309 Q 175.7 296.3 157 273.5 Q 142.2 255.3 134 230.5 L 129 207.5 L 128 184.5 L 129 183.5 L 129 172.5 L 131 161.5 L 138 138.5 Q 150.7 108.2 174.5 89 Q 189.6 76.6 209.5 69 L 230.5 63 L 241.5 61 L 249.5 61 L 250.5 60 Z M 253 160 L 241 165 Q 231 171 228 184 L 228 196 L 233 208 Q 240 217 254 220 Q 270 221 278 213 L 286 201 L 288 192 Q 287 177 280 170 Q 272 159 253 160 Z " /><path fill="rgb(0,0,0)" stroke="rgb(0,0,0)" stroke-width="1" opacity="0" d="M 255.5 180 L 260.5 180 L 267 185.5 L 268 191.5 L 262.5 199 L 255.5 200 L 249 195.5 L 248 186.5 L 252.5 181 L 255.5 180 Z " /><path fill="rgb(0,0,0)" stroke="rgb(0,0,0)" stroke-width="1" opacity="0" d="M 315.5 240 L 322.5 241 L 387 305.5 L 388 311.5 L 382.5 319 L 375.5 320 L 372.5 319 L 309 255.5 L 308 247.5 L 310 243 L 315.5 240 Z " /><path fill="rgb(0,0,0)" stroke="rgb(0,0,0)" stroke-width="1" opacity="0" d="M 185 395 L 324.5 395 L 325 395.5 L 325 422 L 185.5 422 L 185 421.5 L 185 395 Z " /></svg>