<svg width="512" height="512" version="1.1" xmlns="http://www.w3.org/2000/svg" desc="Created with imagetracer.js version 1.2.6" ><path fill="rgb(0,0,0)" stroke="rgb(0,0,0)" stroke-width="1" opacity="0" d="M 0 0 L 511.5 0 L 512 0.5 L 512 90.5 L 511 90.5 L 508.5 87 L 504.5 85 L 480.5 84 L 479.5 83 L 438.5 81 L 437.5 80 L 425.5 80 L 424.5 79 L 383.5 77 L 382.5 76 L 370.5 76 L 369.5 75 L 314.5 72 L 313.5 71 L 301.5 71 L 300.5 70 L 259.5 68 L 258.5 67 L 246.5 67 L 245.5 66 L 204.5 64 L 203.5 63 L 191.5 63 L 190.5 62 L 177.5 62 L 176.5 61 L 163.5 61 L 162.5 60 L 149.5 60 L 148.5 59 L 136.5 59 L 135.5 58 L 122.5 58 L 121.5 57 L 108.5 57 L 107.5 56 L 94.5 56 L 93.5 55 L 81.5 55 L 80.5 54 L 67.5 54 L 66.5 53 L 53.5 53 L 52.5 52 L 39.5 52 L 38.5 51 L 26.5 51 L 25.5 50 Q 15.2 51.3 8.5 49 L 2 52.5 L 0.5 56 L 0 0 Z " /><path fill="rgb(0,0,0)" stroke="rgb(0,0,0)" stroke-width="1" opacity="0" d="M 18 68 L 23.5 69 L 63.5 71 L 64.5 72 L 118.5 75 L 119.5 76 L 173.5 79 L 174.5 80 L 215.5 82 L 216.5 83 L 228.5 83 L 229.5 84 L 270.5 86 L 271.5 87 L 283.5 87 L 284.5 88 L 325.5 90 L 326.5 91 L 338.5 91 L 339.5 92 L 380.5 94 L 381.5 95 L 393.5 95 L 394.5 96 L 435.5 98 L 436.5 99 L 448.5 99 L 449.5 100 L 490.5 102 L 494 103 L 494 345.5 L 492.5 346 L 491.5 347 L 479.5 347 L 478.5 348 L 423.5 351 L 422.5 352 L 410.5 352 L 409.5 353 L 368.5 355 L 367.5 356 L 355.5 356 L 354.5 357 L 313.5 359 L 312.5 360 L 300.5 360 L 299.5 361 L 258.5 363 L 257.5 364 L 245.5 364 L 244.5 365 L 203.5 367 L 202.5 368 L 190.5 368 L 189.5 369 L 176.5 369 L 175.5 370 L 162.5 370 L 161.5 371 L 148.5 371 L 147.5 372 L 93.5 375 L 92.5 376 L 79.5 376 L 78.5 377 L 66.5 377 L 65.5 378 L 52.5 378 L 51.5 379 L 38.5 379 L 37.5 380 L 24.5 380 L 18 381 L 18 68 Z M 107 103 L 41 140 L 36 146 Q 35 152 38 155 L 42 157 L 48 157 L 56 153 L 112 121 L 117 115 Q 118 109 115 107 Q 113 102 107 103 Z M 179 112 L 41 194 L 36 200 L 37 207 L 43 211 L 48 211 L 54 208 L 184 130 L 189 123 L 188 118 Q 186 112 179 112 Z " /><path fill="rgb(0,0,0)" stroke="rgb(0,0,0)" stroke-width="1" opacity="0" d="M 511.5 358 L 512 512 L 0.5 512 L 0 511.5 L 0 394.5 L 1 394.5 L 3.5 398 Q 6.2 400.8 12.5 400 L 13.5 399 L 26.5 399 L 27.5 398 L 67.5 396 L 68.5 395 L 81.5 395 L 82.5 394 L 122.5 392 L 123.5 391 L 177.5 388 L 178.5 387 L 219.5 385 L 220.5 384 L 232.5 384 L 233.5 383 L 246.5 383 L 251 382 L 251 436.5 L 249.5 438 L 215.5 444 L 208 448.5 L 207 456.5 L 211.5 462 L 216.5 463 L 306.5 445 L 313 440.5 L 314 432.5 L 310.5 428 Q 307.3 425.7 300.5 427 L 270 433 L 270 381.5 Q 270 380.5 274.5 381 L 275.5 380 L 288.5 380 L 289.5 379 L 301.5 379 L 302.5 378 L 315.5 378 L 316.5 377 L 343.5 376 L 344.5 375 L 356.5 375 L 357.5 374 L 398.5 372 L 399.5 371 L 439.5 369 L 440.5 368 L 452.5 368 L 453.5 367 L 494.5 365 L 495.5 364 L 504.5 364 L 511 359.5 L 511.5 358 Z " /><path fill="rgb(0,0,0)" stroke="rgb(0,0,0)" stroke-width="1" opacity="0.807843137254902" d="M 8.5 49 L 12 49.5 L 8.5 50 L 8.5 49 Z " /><path fill="rgb(0,0,0)" stroke="rgb(0,0,0)" stroke-width="1" opacity="0.807843137254902" d="M 19.5 50 L 26 50.5 L 19.5 51 L 19.5 50 Z " /><path fill="rgb(0,0,0)" stroke="rgb(0,0,0)" stroke-width="1" opacity="0.807843137254902" d="M 3.5 51 L 2.5 53 L 3.5 51 Z " /><path fill="rgb(0,0,0)" stroke="rgb(0,0,0)" stroke-width="1" opacity="0.807843137254902" d="M 32.5 51 L 39 51.5 L 32.5 52 L 32.5 51 Z " /><path fill="rgb(0,0,0)" stroke="rgb(0,0,0)" stroke-width="1" opacity="0.807843137254902" d="M 46.5 52 L 53 52.5 L 46.5 53 L 46.5 52 Z " /><path fill="rgb(0,0,0)" stroke="rgb(0,0,0)" stroke-width="1" opacity="0.807843137254902" d="M 60.5 53 L 67 53.5 L 60.5 54 L 60.5 53 Z " /><path fill="rgb(0,0,0)" stroke="rgb(0,0,0)" stroke-width="1" opacity="0.807843137254902" d="M 74.5 54 L 81 54.5 L 74.5 55 L 74.5 54 Z " /><path fill="rgb(0,0,0)" stroke="rgb(0,0,0)" stroke-width="1" opacity="0.807843137254902" d="M 88.5 55 L 94 55.5 L 88.5 56 L 88.5 55 Z " /><path fill="rgb(0,0,0)" stroke="rgb(0,0,0)" stroke-width="1" opacity="0.807843137254902" d="M 101.5 56 L 108 56.5 L 101.5 57 L 101.5 56 Z " /><path fill="rgb(0,0,0)" stroke="rgb(0,0,0)" stroke-width="1" opacity="0.807843137254902" d="M 115.5 57 L 122 57.5 L 115.5 58 L 115.5 57 Z " /><path fill="rgb(0,0,0)" stroke="rgb(0,0,0)" stroke-width="1" opacity="0.807843137254902" d="M 129.5 58 L 136 58.5 L 129.5 59 L 129.5 58 Z " /><path fill="rgb(0,0,0)" stroke="rgb(0,0,0)" stroke-width="1" opacity="0.807843137254902" d="M 143.5 59 L 149 59.5 L 143.5 60 L 143.5 59 Z " /><path fill="rgb(0,0,0)" stroke="rgb(0,0,0)" stroke-width="1" opacity="0.807843137254902" d="M 156.5 60 L 163 60.5 L 156.5 61 L 156.5 60 Z " /><path fill="rgb(0,0,0)" stroke="rgb(0,0,0)" stroke-width="1" opacity="0.807843137254902" d="M 170.5 61 L 177 61.5 L 170.5 62 L 170.5 61 Z " /><path fill="rgb(0,0,0)" stroke="rgb(0,0,0)" stroke-width="1" opacity="0.807843137254902" d="M 184.5 62 L 191 62.5 L 184.5 63 L 184.5 62 Z " /><path fill="rgb(0,0,0)" stroke="rgb(0,0,0)" stroke-width="1" opacity="0.807843137254902" d="M 198.5 63 L 204 63.5 L 198.5 64 L 198.5 63 Z " /><path fill="rgb(0,0,0)" stroke="rgb(0,0,0)" stroke-width="1" opacity="0.807843137254902" d="M 211.5 64 L 218 64.5 L 211.5 65 L 211.5 64 Z " /><path fill="rgb(0,0,0)" stroke="rgb(0,0,0)" stroke-width="1" opacity="0.807843137254902" d="M 225.5 65 L 232 65.5 L 225.5 66 L 225.5 65 Z " /><path fill="rgb(0,0,0)" stroke="rgb(0,0,0)" stroke-width="1" opacity="0.807843137254902" d="M 239.5 66 L 246 66.5 L 239.5 67 L 239.5 66 Z " /><path fill="rgb(0,0,0)" stroke="rgb(0,0,0)" stroke-width="1" opacity="0.807843137254902" d="M 253.5 67 L 259 67.5 L 253.5 68 L 253.5 67 Z " /><path fill="rgb(0,0,0)" stroke="rgb(0,0,0)" stroke-width="1" opacity="0.807843137254902" d="M 23.5 68 L 30 68.5 L 23.5 69 L 23.5 68 Z " /><path fill="rgb(0,0,0)" stroke="rgb(0,0,0)" stroke-width="1" opacity="0.807843137254902" d="M 266.5 68 L 273 68.5 L 266.5 69 L 266.5 68 Z " /><path fill="rgb(0,0,0)" stroke="rgb(0,0,0)" stroke-width="1" opacity="0.807843137254902" d="M 37.5 69 L 44 69.5 L 37.5 70 L 37.5 69 Z " /><path fill="rgb(0,0,0)" stroke="rgb(0,0,0)" stroke-width="1" opacity="0.807843137254902" d="M 280.5 69 L 287 69.5 L 280.5 70 L 280.5 69 Z " /><path fill="rgb(0,0,0)" stroke="rgb(0,0,0)" stroke-width="1" opacity="0.807843137254902" d="M 51.5 70 L 57 70.5 L 51.5 71 L 51.5 70 Z " /><path fill="rgb(0,0,0)" stroke="rgb(0,0,0)" stroke-width="1" opacity="0.807843137254902" d="M 294.5 70 L 301 70.5 L 294.5 71 L 294.5 70 Z " /><path fill="rgb(0,0,0)" stroke="rgb(0,0,0)" stroke-width="1" opacity="0.807843137254902" d="M 64.5 71 L 71 71.5 L 64.5 72 L 64.5 71 Z " /><path fill="rgb(0,0,0)" stroke="rgb(0,0,0)" stroke-width="1" opacity="0.807843137254902" d="M 308.5 71 L 314 71.5 L 308.5 72 L 308.5 71 Z " /><path fill="rgb(0,0,0)" stroke="rgb(0,0,0)" stroke-width="1" opacity="0.807843137254902" d="M 78.5 72 L 85 72.5 L 78.5 73 L 78.5 72 Z " /><path fill="rgb(0,0,0)" stroke="rgb(0,0,0)" stroke-width="1" opacity="0.807843137254902" d="M 321.5 72 L 328 72.5 L 321.5 73 L 321.5 72 Z " /><path fill="rgb(0,0,0)" stroke="rgb(0,0,0)" stroke-width="1" opacity="0.807843137254902" d="M 92.5 73 L 99 73.5 L 92.5 74 L 92.5 73 Z " /><path fill="rgb(0,0,0)" stroke="rgb(0,0,0)" stroke-width="1" opacity="0.807843137254902" d="M 335.5 73 L 342 73.5 L 335.5 74 L 335.5 73 Z " /><path fill="rgb(0,0,0)" stroke="rgb(0,0,0)" stroke-width="1" opacity="0.807843137254902" d="M 106.5 74 L 112 74.5 L 106.5 75 L 106.5 74 Z " /><path fill="rgb(0,0,0)" stroke="rgb(0,0,0)" stroke-width="1" opacity="0.807843137254902" d="M 349.5 74 L 356 74.5 L 349.5 75 L 349.5 74 Z " /><path fill="rgb(0,0,0)" stroke="rgb(0,0,0)" stroke-width="1" opacity="0.807843137254902" d="M 119.5 75 L 126 75.5 L 119.5 76 L 119.5 75 Z " /><path fill="rgb(0,0,0)" stroke="rgb(0,0,0)" stroke-width="1" opacity="0.807843137254902" d="M 363.5 75 L 370 75.5 L 363.5 76 L 363.5 75 Z " /><path fill="rgb(0,0,0)" stroke="rgb(0,0,0)" stroke-width="1" opacity="0.807843137254902" d="M 133.5 76 L 140 76.5 L 133.5 77 L 133.5 76 Z " /><path fill="rgb(0,0,0)" stroke="rgb(0,0,0)" stroke-width="1" opacity="0.807843137254902" d="M 376.5 76 L 383 76.5 L 376.5 77 L 376.5 76 Z " /><path fill="rgb(0,0,0)" stroke="rgb(0,0,0)" stroke-width="1" opacity="0.807843137254902" d="M 147.5 77 L 154 77.5 L 147.5 78 L 147.5 77 Z " /><path fill="rgb(0,0,0)" stroke="rgb(0,0,0)" stroke-width="1" opacity="0.807843137254902" d="M 390.5 77 L 397 77.5 L 390.5 78 L 390.5 77 Z " /><path fill="rgb(0,0,0)" stroke="rgb(0,0,0)" stroke-width="1" opacity="0.807843137254902" d="M 161.5 78 L 167 78.5 L 161.5 79 L 161.5 78 Z " /><path fill="rgb(0,0,0)" stroke="rgb(0,0,0)" stroke-width="1" opacity="0.807843137254902" d="M 404.5 78 L 411 78.5 L 404.5 79 L 404.5 78 Z " /><path fill="rgb(0,0,0)" stroke="rgb(0,0,0)" stroke-width="1" opacity="0.807843137254902" d="M 174.5 79 L 181 79.5 L 174.5 80 L 174.5 79 Z " /><path fill="rgb(0,0,0)" stroke="rgb(0,0,0)" stroke-width="1" opacity="0.807843137254902" d="M 418.5 79 L 425 79.5 L 418.5 80 L 418.5 79 Z " /><path fill="rgb(0,0,0)" stroke="rgb(0,0,0)" stroke-width="1" opacity="0.807843137254902" d="M 188.5 80 L 195 80.5 L 188.5 81 L 188.5 80 Z " /><path fill="rgb(0,0,0)" stroke="rgb(0,0,0)" stroke-width="1" opacity="0.807843137254902" d="M 431.5 80 L 438 80.5 L 431.5 81 L 431.5 80 Z " /><path fill="rgb(0,0,0)" stroke="rgb(0,0,0)" stroke-width="1" opacity="0.807843137254902" d="M 202.5 81 L 209 81.5 L 202.5 82 L 202.5 81 Z " /><path fill="rgb(0,0,0)" stroke="rgb(0,0,0)" stroke-width="1" opacity="0.807843137254902" d="M 445.5 81 L 452 81.5 L 445.5 82 L 445.5 81 Z " /><path fill="rgb(0,0,0)" stroke="rgb(0,0,0)" stroke-width="1" opacity="0.807843137254902" d="M 216.5 82 L 222 82.5 L 216.5 83 L 216.5 82 Z " /><path fill="rgb(0,0,0)" stroke="rgb(0,0,0)" stroke-width="1" opacity="0.807843137254902" d="M 459.5 82 L 466 82.5 L 459.5 83 L 459.5 82 Z " /><path fill="rgb(0,0,0)" stroke="rgb(0,0,0)" stroke-width="1" opacity="0.807843137254902" d="M 229.5 83 L 236 83.5 L 229.5 84 L 229.5 83 Z " /><path fill="rgb(0,0,0)" stroke="rgb(0,0,0)" stroke-width="1" opacity="0.807843137254902" d="M 473.5 83 L 480 83.5 L 473.5 84 L 473.5 83 Z " /><path fill="rgb(0,0,0)" stroke="rgb(0,0,0)" stroke-width="1" opacity="0.807843137254902" d="M 243.5 84 L 250 84.5 L 243.5 85 L 243.5 84 Z " /><path fill="rgb(0,0,0)" stroke="rgb(0,0,0)" stroke-width="1" opacity="0.807843137254902" d="M 487.5 84 L 493 84.5 L 487.5 85 L 487.5 84 Z " /><path fill="rgb(0,0,0)" stroke="rgb(0,0,0)" stroke-width="1" opacity="0.807843137254902" d="M 257.5 85 L 264 85.5 L 257.5 86 L 257.5 85 Z " /><path fill="rgb(0,0,0)" stroke="rgb(0,0,0)" stroke-width="1" opacity="0.807843137254902" d="M 500.5 85 L 505 85.5 L 500.5 86 L 500.5 85 Z " /><path fill="rgb(0,0,0)" stroke="rgb(0,0,0)" stroke-width="1" opacity="0.807843137254902" d="M 271.5 86 L 277 86.5 L 271.5 87 L 271.5 86 Z " /><path fill="rgb(0,0,0)" stroke="rgb(0,0,0)" stroke-width="1" opacity="0.807843137254902" d="M 284.5 87 L 291 87.5 L 284.5 88 L 284.5 87 Z " /><path fill="rgb(0,0,0)" stroke="rgb(0,0,0)" stroke-width="1" opacity="0.807843137254902" d="M 508.5 87 L 510.5 90 L 508.5 87 Z " /><path fill="rgb(0,0,0)" stroke="rgb(0,0,0)" stroke-width="1" opacity="0.807843137254902" d="M 298.5 88 L 305 88.5 L 298.5 89 L 298.5 88 Z " /><path fill="rgb(0,0,0)" stroke="rgb(0,0,0)" stroke-width="1" opacity="0.807843137254902" d="M 312.5 89 L 319 89.5 L 312.5 90 L 312.5 89 Z " /><path fill="rgb(0,0,0)" stroke="rgb(0,0,0)" stroke-width="1" opacity="0.807843137254902" d="M 326.5 90 L 332 90.5 L 326.5 91 L 326.5 90 Z " /><path fill="rgb(0,0,0)" stroke="rgb(0,0,0)" stroke-width="1" opacity="0.807843137254902" d="M 339.5 91 L 346 91.5 L 339.5 92 L 339.5 91 Z " /><path fill="rgb(0,0,0)" stroke="rgb(0,0,0)" stroke-width="1" opacity="0.807843137254902" d="M 511.5 91 L 512 93.5 L 511 93.5 L 511.5 91 Z " /><path fill="rgb(0,0,0)" stroke="rgb(0,0,0)" stroke-width="1" opacity="0.807843137254902" d="M 353.5 92 L 360 92.5 L 353.5 93 L 353.5 92 Z " /><path fill="rgb(0,0,0)" stroke="rgb(0,0,0)" stroke-width="1" opacity="0.807843137254902" d="M 367.5 93 L 374 93.5 L 367.5 94 L 367.5 93 Z " /><path fill="rgb(0,0,0)" stroke="rgb(0,0,0)" stroke-width="1" opacity="0.807843137254902" d="M 381.5 94 L 387 94.5 L 381.5 95 L 381.5 94 Z " /><path fill="rgb(0,0,0)" stroke="rgb(0,0,0)" stroke-width="1" opacity="0.807843137254902" d="M 394.5 95 L 401 95.5 L 394.5 96 L 394.5 95 Z " /><path fill="rgb(0,0,0)" stroke="rgb(0,0,0)" stroke-width="1" opacity="0.807843137254902" d="M 408.5 96 L 415 96.5 L 408.5 97 L 408.5 96 Z " /><path fill="rgb(0,0,0)" stroke="rgb(0,0,0)" stroke-width="1" opacity="0.807843137254902" d="M 422.5 97 L 429 97.5 L 422.5 98 L 422.5 97 Z " /><path fill="rgb(0,0,0)" stroke="rgb(0,0,0)" stroke-width="1" opacity="0.807843137254902" d="M 436.5 98 L 442 98.5 L 436.5 99 L 436.5 98 Z " /><path fill="rgb(0,0,0)" stroke="rgb(0,0,0)" stroke-width="1" opacity="0.807843137254902" d="M 449.5 99 L 456 99.5 L 449.5 100 L 449.5 99 Z " /><path fill="rgb(0,0,0)" stroke="rgb(0,0,0)" stroke-width="1" opacity="0.807843137254902" d="M 463.5 100 L 470 100.5 L 463.5 101 L 463.5 100 Z " /><path fill="rgb(0,0,0)" stroke="rgb(0,0,0)" stroke-width="1" opacity="0.807843137254902" d="M 477.5 101 L 484 101.5 L 477.5 102 L 477.5 101 Z " /><path fill="rgb(0,0,0)" stroke="rgb(0,0,0)" stroke-width="1" opacity="0.807843137254902" d="M 491.5 102 L 494 102.5 L 491.5 103 L 491.5 102 Z " /><path fill="rgb(0,0,0)" stroke="rgb(0,0,0)" stroke-width="1" opacity="0.807843137254902" d="M 106.5 103 L 110 103.5 L 106.5 104 L 106.5 103 Z " /><path fill="rgb(0,0,0)" stroke="rgb(0,0,0)" stroke-width="1" opacity="0.807843137254902" d="M 101.5 105 L 100.5 107 L 101.5 105 Z " /><path fill="rgb(0,0,0)" stroke="rgb(0,0,0)" stroke-width="1" opacity="0.807843137254902" d="M 113.5 105 L 114.5 107 L 113.5 105 Z " /><path fill="rgb(0,0,0)" stroke="rgb(0,0,0)" stroke-width="1" opacity="0.807843137254902" d="M 94.5 109 L 93.5 111 L 94.5 109 Z " /><path fill="rgb(0,0,0)" stroke="rgb(0,0,0)" stroke-width="1" opacity="0.807843137254902" d="M 116.5 110 L 117 114.5 L 116 114.5 L 116.5 110 Z " /><path fill="rgb(0,0,0)" stroke="rgb(0,0,0)" stroke-width="1" opacity="0.807843137254902" d="M 178.5 112 L 182 112.5 L 178.5 113 L 178.5 112 Z " /><path fill="rgb(0,0,0)" stroke="rgb(0,0,0)" stroke-width="1" opacity="0.807843137254902" d="M 87.5 113 L 86.5 115 L 87.5 113 Z " /><path fill="rgb(0,0,0)" stroke="rgb(0,0,0)" stroke-width="1" opacity="0.807843137254902" d="M 173.5 114 L 172.5 116 L 173.5 114 Z " /><path fill="rgb(0,0,0)" stroke="rgb(0,0,0)" stroke-width="1" opacity="0.807843137254902" d="M 80.5 117 L 79.5 119 L 80.5 117 Z " /><path fill="rgb(0,0,0)" stroke="rgb(0,0,0)" stroke-width="1" opacity="0.807843137254902" d="M 168.5 117 L 167.5 119 L 168.5 117 Z " /><path fill="rgb(0,0,0)" stroke="rgb(0,0,0)" stroke-width="1" opacity="0.807843137254902" d="M 113.5 118 L 111.5 121 L 113.5 118 Z " /><path fill="rgb(0,0,0)" stroke="rgb(0,0,0)" stroke-width="1" opacity="0.807843137254902" d="M 163.5 120 L 162.5 122 L 163.5 120 Z " /><path fill="rgb(0,0,0)" stroke="rgb(0,0,0)" stroke-width="1" opacity="0.807843137254902" d="M 188.5 120 L 189 122.5 L 188 122.5 L 188.5 120 Z " /><path fill="rgb(0,0,0)" stroke="rgb(0,0,0)" stroke-width="1" opacity="0.807843137254902" d="M 73.5 121 L 72.5 123 L 73.5 121 Z " /><path fill="rgb(0,0,0)" stroke="rgb(0,0,0)" stroke-width="1" opacity="0.807843137254902" d="M 105.5 123 L 104.5 125 L 105.5 123 Z " /><path fill="rgb(0,0,0)" stroke="rgb(0,0,0)" stroke-width="1" opacity="0.807843137254902" d="M 158.5 123 L 157.5 125 L 158.5 123 Z " /><path fill="rgb(0,0,0)" stroke="rgb(0,0,0)" stroke-width="1" opacity="0.807843137254902" d="M 66.5 125 L 65.5 127 L 66.5 125 Z " /><path fill="rgb(0,0,0)" stroke="rgb(0,0,0)" stroke-width="1" opacity="0.807843137254902" d="M 153.5 126 L 152.5 128 L 153.5 126 Z " /><path fill="rgb(0,0,0)" stroke="rgb(0,0,0)" stroke-width="1" opacity="0.807843137254902" d="M 186.5 126 L 183.5 130 L 186.5 126 Z " /><path fill="rgb(0,0,0)" stroke="rgb(0,0,0)" stroke-width="1" opacity="0.807843137254902" d="M 98.5 127 L 97.5 129 L 98.5 127 Z " /><path fill="rgb(0,0,0)" stroke="rgb(0,0,0)" stroke-width="1" opacity="0.807843137254902" d="M 59.5 129 L 58.5 131 L 59.5 129 Z " /><path fill="rgb(0,0,0)" stroke="rgb(0,0,0)" stroke-width="1" opacity="0.807843137254902" d="M 148.5 129 L 147.5 131 L 148.5 129 Z " /><path fill="rgb(0,0,0)" stroke="rgb(0,0,0)" stroke-width="1" opacity="0.807843137254902" d="M 91.5 131 L 90.5 133 L 91.5 131 Z " /><path fill="rgb(0,0,0)" stroke="rgb(0,0,0)" stroke-width="1" opacity="0.807843137254902" d="M 179.5 131 L 178.5 133 L 179.5 131 Z " /><path fill="rgb(0,0,0)" stroke="rgb(0,0,0)" stroke-width="1" opacity="0.807843137254902" d="M 143.5 132 L 142.5 134 L 143.5 132 Z " /><path fill="rgb(0,0,0)" stroke="rgb(0,0,0)" stroke-width="1" opacity="0.807843137254902" d="M 52.5 133 L 51.5 135 L 52.5 133 Z " /><path fill="rgb(0,0,0)" stroke="rgb(0,0,0)" stroke-width="1" opacity="0.807843137254902" d="M 174.5 134 L 173.5 136 L 174.5 134 Z " /><path fill="rgb(0,0,0)" stroke="rgb(0,0,0)" stroke-width="1" opacity="0.807843137254902" d="M 84.5 135 L 83.5 137 L 84.5 135 Z " /><path fill="rgb(0,0,0)" stroke="rgb(0,0,0)" stroke-width="1" opacity="0.807843137254902" d="M 138.5 135 L 137.5 137 L 138.5 135 Z " /><path fill="rgb(0,0,0)" stroke="rgb(0,0,0)" stroke-width="1" opacity="0.807843137254902" d="M 45.5 137 L 44.5 139 L 45.5 137 Z " /><path fill="rgb(0,0,0)" stroke="rgb(0,0,0)" stroke-width="1" opacity="0.807843137254902" d="M 169.5 137 L 168.5 139 L 169.5 137 Z " /><path fill="rgb(0,0,0)" stroke="rgb(0,0,0)" stroke-width="1" opacity="0.807843137254902" d="M 133.5 138 L 132.5 140 L 133.5 138 Z " /><path fill="rgb(0,0,0)" stroke="rgb(0,0,0)" stroke-width="1" opacity="0.807843137254902" d="M 77.5 139 L 76.5 141 L 77.5 139 Z " /><path fill="rgb(0,0,0)" stroke="rgb(0,0,0)" stroke-width="1" opacity="0.807843137254902" d="M 40.5 140 L 37.5 144 L 40.5 140 Z " /><path fill="rgb(0,0,0)" stroke="rgb(0,0,0)" stroke-width="1" opacity="0.807843137254902" d="M 164.5 140 L 163.5 142 L 164.5 140 Z " /><path fill="rgb(0,0,0)" stroke="rgb(0,0,0)" stroke-width="1" opacity="0.807843137254902" d="M 128.5 141 L 127.5 143 L 128.5 141 Z " /><path fill="rgb(0,0,0)" stroke="rgb(0,0,0)" stroke-width="1" opacity="0.807843137254902" d="M 70.5 143 L 69.5 145 L 70.5 143 Z " /><path fill="rgb(0,0,0)" stroke="rgb(0,0,0)" stroke-width="1" opacity="0.807843137254902" d="M 159.5 143 L 158.5 145 L 159.5 143 Z " /><path fill="rgb(0,0,0)" stroke="rgb(0,0,0)" stroke-width="1" opacity="0.807843137254902" d="M 123.5 144 L 122.5 146 L 123.5 144 Z " /><path fill="rgb(0,0,0)" stroke="rgb(0,0,0)" stroke-width="1" opacity="0.807843137254902" d="M 36.5 145 L 37 147.5 L 36 147.5 L 36.5 145 Z " /><path fill="rgb(0,0,0)" stroke="rgb(0,0,0)" stroke-width="1" opacity="0.807843137254902" d="M 154.5 146 L 153.5 148 L 154.5 146 Z " /><path fill="rgb(0,0,0)" stroke="rgb(0,0,0)" stroke-width="1" opacity="0.807843137254902" d="M 63.5 147 L 62.5 149 L 63.5 147 Z " /><path fill="rgb(0,0,0)" stroke="rgb(0,0,0)" stroke-width="1" opacity="0.807843137254902" d="M 118.5 147 L 117.5 149 L 118.5 147 Z " /><path fill="rgb(0,0,0)" stroke="rgb(0,0,0)" stroke-width="1" opacity="0.807843137254902" d="M 149.5 149 L 148.5 151 L 149.5 149 Z " /><path fill="rgb(0,0,0)" stroke="rgb(0,0,0)" stroke-width="1" opacity="0.807843137254902" d="M 113.5 150 L 112.5 152 L 113.5 150 Z " /><path fill="rgb(0,0,0)" stroke="rgb(0,0,0)" stroke-width="1" opacity="0.807843137254902" d="M 56.5 151 L 55.5 153 L 56.5 151 Z " /><path fill="rgb(0,0,0)" stroke="rgb(0,0,0)" stroke-width="1" opacity="0.807843137254902" d="M 144.5 152 L 143.5 154 L 144.5 152 Z " /><path fill="rgb(0,0,0)" stroke="rgb(0,0,0)" stroke-width="1" opacity="0.807843137254902" d="M 108.5 153 L 107.5 155 L 108.5 153 Z " /><path fill="rgb(0,0,0)" stroke="rgb(0,0,0)" stroke-width="1" opacity="0.807843137254902" d="M 139.5 155 L 138.5 157 L 139.5 155 Z " /><path fill="rgb(0,0,0)" stroke="rgb(0,0,0)" stroke-width="1" opacity="0.807843137254902" d="M 103.5 156 L 102.5 158 L 103.5 156 Z " /><path fill="rgb(0,0,0)" stroke="rgb(0,0,0)" stroke-width="1" opacity="0.807843137254902" d="M 134.5 158 L 133.5 160 L 134.5 158 Z " /><path fill="rgb(0,0,0)" stroke="rgb(0,0,0)" stroke-width="1" opacity="0.807843137254902" d="M 98.5 159 L 97.5 161 L 98.5 159 Z " /><path fill="rgb(0,0,0)" stroke="rgb(0,0,0)" stroke-width="1" opacity="0.807843137254902" d="M 129.5 161 L 128.5 163 L 129.5 161 Z " /><path fill="rgb(0,0,0)" stroke="rgb(0,0,0)" stroke-width="1" opacity="0.807843137254902" d="M 93.5 162 L 92.5 164 L 93.5 162 Z " /><path fill="rgb(0,0,0)" stroke="rgb(0,0,0)" stroke-width="1" opacity="0.807843137254902" d="M 124.5 164 L 123.5 166 L 124.5 164 Z " /><path fill="rgb(0,0,0)" stroke="rgb(0,0,0)" stroke-width="1" opacity="0.807843137254902" d="M 88.5 165 L 87.5 167 L 88.5 165 Z " /><path fill="rgb(0,0,0)" stroke="rgb(0,0,0)" stroke-width="1" opacity="0.807843137254902" d="M 119.5 167 L 118.5 169 L 119.5 167 Z " /><path fill="rgb(0,0,0)" stroke="rgb(0,0,0)" stroke-width="1" opacity="0.807843137254902" d="M 83.5 168 L 82.5 170 L 83.5 168 Z " /><path fill="rgb(0,0,0)" stroke="rgb(0,0,0)" stroke-width="1" opacity="0.807843137254902" d="M 114.5 170 L 113.5 172 L 114.5 170 Z " /><path fill="rgb(0,0,0)" stroke="rgb(0,0,0)" stroke-width="1" opacity="0.807843137254902" d="M 78.5 171 L 77.5 173 L 78.5 171 Z " /><path fill="rgb(0,0,0)" stroke="rgb(0,0,0)" stroke-width="1" opacity="0.807843137254902" d="M 109.5 173 L 108.5 175 L 109.5 173 Z " /><path fill="rgb(0,0,0)" stroke="rgb(0,0,0)" stroke-width="1" opacity="0.807843137254902" d="M 73.5 174 L 72.5 176 L 73.5 174 Z " /><path fill="rgb(0,0,0)" stroke="rgb(0,0,0)" stroke-width="1" opacity="0.807843137254902" d="M 104.5 176 L 103.5 178 L 104.5 176 Z " /><path fill="rgb(0,0,0)" stroke="rgb(0,0,0)" stroke-width="1" opacity="0.807843137254902" d="M 68.5 177 L 67.5 179 L 68.5 177 Z " /><path fill="rgb(0,0,0)" stroke="rgb(0,0,0)" stroke-width="1" opacity="0.807843137254902" d="M 99.5 179 L 98.5 181 L 99.5 179 Z " /><path fill="rgb(0,0,0)" stroke="rgb(0,0,0)" stroke-width="1" opacity="0.807843137254902" d="M 63.5 180 L 62.5 182 L 63.5 180 Z " /><path fill="rgb(0,0,0)" stroke="rgb(0,0,0)" stroke-width="1" opacity="0.807843137254902" d="M 94.5 182 L 93.5 184 L 94.5 182 Z " /><path fill="rgb(0,0,0)" stroke="rgb(0,0,0)" stroke-width="1" opacity="0.807843137254902" d="M 58.5 183 L 57.5 185 L 58.5 183 Z " /><path fill="rgb(0,0,0)" stroke="rgb(0,0,0)" stroke-width="1" opacity="0.807843137254902" d="M 89.5 185 L 88.5 187 L 89.5 185 Z " /><path fill="rgb(0,0,0)" stroke="rgb(0,0,0)" stroke-width="1" opacity="0.807843137254902" d="M 53.5 186 L 52.5 188 L 53.5 186 Z " /><path fill="rgb(0,0,0)" stroke="rgb(0,0,0)" stroke-width="1" opacity="0.807843137254902" d="M 84.5 188 L 83.5 190 L 84.5 188 Z " /><path fill="rgb(0,0,0)" stroke="rgb(0,0,0)" stroke-width="1" opacity="0.807843137254902" d="M 48.5 189 L 47.5 191 L 48.5 189 Z " /><path fill="rgb(0,0,0)" stroke="rgb(0,0,0)" stroke-width="1" opacity="0.807843137254902" d="M 79.5 191 L 78.5 193 L 79.5 191 Z " /><path fill="rgb(0,0,0)" stroke="rgb(0,0,0)" stroke-width="1" opacity="0.807843137254902" d="M 43.5 192 L 42.5 194 L 43.5 192 Z " /><path fill="rgb(0,0,0)" stroke="rgb(0,0,0)" stroke-width="1" opacity="0.807843137254902" d="M 40.5 194 L 37.5 198 L 40.5 194 Z " /><path fill="rgb(0,0,0)" stroke="rgb(0,0,0)" stroke-width="1" opacity="0.807843137254902" d="M 74.5 194 L 73.5 196 L 74.5 194 Z " /><path fill="rgb(0,0,0)" stroke="rgb(0,0,0)" stroke-width="1" opacity="0.807843137254902" d="M 69.5 197 L 68.5 199 L 69.5 197 Z " /><path fill="rgb(0,0,0)" stroke="rgb(0,0,0)" stroke-width="1" opacity="0.807843137254902" d="M 36.5 199 L 37 201.5 L 36 201.5 L 36.5 199 Z " /><path fill="rgb(0,0,0)" stroke="rgb(0,0,0)" stroke-width="1" opacity="0.807843137254902" d="M 64.5 200 L 63.5 202 L 64.5 200 Z " /><path fill="rgb(0,0,0)" stroke="rgb(0,0,0)" stroke-width="1" opacity="0.807843137254902" d="M 59.5 203 L 58.5 205 L 59.5 203 Z " /><path fill="rgb(0,0,0)" stroke="rgb(0,0,0)" stroke-width="1" opacity="0.807843137254902" d="M 54.5 206 L 53.5 208 L 54.5 206 Z " /><path fill="rgb(0,0,0)" stroke="rgb(0,0,0)" stroke-width="1" opacity="0.807843137254902" d="M 479.5 347 L 485 347.5 L 479.5 348 L 479.5 347 Z " /><path fill="rgb(0,0,0)" stroke="rgb(0,0,0)" stroke-width="1" opacity="0.807843137254902" d="M 465.5 348 L 472 348.5 L 465.5 349 L 465.5 348 Z " /><path fill="rgb(0,0,0)" stroke="rgb(0,0,0)" stroke-width="1" opacity="0.807843137254902" d="M 451.5 349 L 458 349.5 L 451.5 350 L 451.5 349 Z " /><path fill="rgb(0,0,0)" stroke="rgb(0,0,0)" stroke-width="1" opacity="0.807843137254902" d="M 437.5 350 L 444 350.5 L 437.5 351 L 437.5 350 Z " /><path fill="rgb(0,0,0)" stroke="rgb(0,0,0)" stroke-width="1" opacity="0.807843137254902" d="M 423.5 351 L 430 351.5 L 423.5 352 L 423.5 351 Z " /><path fill="rgb(0,0,0)" stroke="rgb(0,0,0)" stroke-width="1" opacity="0.807843137254902" d="M 410.5 352 L 417 352.5 L 410.5 353 L 410.5 352 Z " /><path fill="rgb(0,0,0)" stroke="rgb(0,0,0)" stroke-width="1" opacity="0.807843137254902" d="M 396.5 353 L 403 353.5 L 396.5 354 L 396.5 353 Z " /><path fill="rgb(0,0,0)" stroke="rgb(0,0,0)" stroke-width="1" opacity="0.807843137254902" d="M 382.5 354 L 389 354.5 L 382.5 355 L 382.5 354 Z " /><path fill="rgb(0,0,0)" stroke="rgb(0,0,0)" stroke-width="1" opacity="0.807843137254902" d="M 368.5 355 L 375 355.5 L 368.5 356 L 368.5 355 Z " /><path fill="rgb(0,0,0)" stroke="rgb(0,0,0)" stroke-width="1" opacity="0.807843137254902" d="M 511.5 355 L 512 357.5 L 511 357.5 L 511.5 355 Z " /><path fill="rgb(0,0,0)" stroke="rgb(0,0,0)" stroke-width="1" opacity="0.807843137254902" d="M 355.5 356 L 361 356.5 L 355.5 357 L 355.5 356 Z " /><path fill="rgb(0,0,0)" stroke="rgb(0,0,0)" stroke-width="1" opacity="0.807843137254902" d="M 341.5 357 L 348 357.5 L 341.5 358 L 341.5 357 Z " /><path fill="rgb(0,0,0)" stroke="rgb(0,0,0)" stroke-width="1" opacity="0.807843137254902" d="M 327.5 358 L 334 358.5 L 327.5 359 L 327.5 358 Z " /><path fill="rgb(0,0,0)" stroke="rgb(0,0,0)" stroke-width="1" opacity="0.807843137254902" d="M 313.5 359 L 320 359.5 L 313.5 360 L 313.5 359 Z " /><path fill="rgb(0,0,0)" stroke="rgb(0,0,0)" stroke-width="1" opacity="0.807843137254902" d="M 510.5 359 L 507.5 363 L 510.5 359 Z " /><path fill="rgb(0,0,0)" stroke="rgb(0,0,0)" stroke-width="1" opacity="0.807843137254902" d="M 300.5 360 L 306 360.5 L 300.5 361 L 300.5 360 Z " /><path fill="rgb(0,0,0)" stroke="rgb(0,0,0)" stroke-width="1" opacity="0.807843137254902" d="M 286.5 361 L 293 361.5 L 286.5 362 L 286.5 361 Z " /><path fill="rgb(0,0,0)" stroke="rgb(0,0,0)" stroke-width="1" opacity="0.807843137254902" d="M 272.5 362 L 279 362.5 L 272.5 363 L 272.5 362 Z " /><path fill="rgb(0,0,0)" stroke="rgb(0,0,0)" stroke-width="1" opacity="0.807843137254902" d="M 258.5 363 L 265 363.5 L 258.5 364 L 258.5 363 Z " /><path fill="rgb(0,0,0)" stroke="rgb(0,0,0)" stroke-width="1" opacity="0.807843137254902" d="M 502.5 363 L 505 363.5 L 502.5 364 L 502.5 363 Z " /><path fill="rgb(0,0,0)" stroke="rgb(0,0,0)" stroke-width="1" opacity="0.807843137254902" d="M 245.5 364 L 251 364.5 L 245.5 365 L 245.5 364 Z " /><path fill="rgb(0,0,0)" stroke="rgb(0,0,0)" stroke-width="1" opacity="0.807843137254902" d="M 488.5 364 L 495 364.5 L 488.5 365 L 488.5 364 Z " /><path fill="rgb(0,0,0)" stroke="rgb(0,0,0)" stroke-width="1" opacity="0.807843137254902" d="M 231.5 365 L 238 365.5 L 231.5 366 L 231.5 365 Z " /><path fill="rgb(0,0,0)" stroke="rgb(0,0,0)" stroke-width="1" opacity="0.807843137254902" d="M 474.5 365 L 481 365.5 L 474.5 366 L 474.5 365 Z " /><path fill="rgb(0,0,0)" stroke="rgb(0,0,0)" stroke-width="1" opacity="0.807843137254902" d="M 217.5 366 L 224 366.5 L 217.5 367 L 217.5 366 Z " /><path fill="rgb(0,0,0)" stroke="rgb(0,0,0)" stroke-width="1" opacity="0.807843137254902" d="M 460.5 366 L 467 366.5 L 460.5 367 L 460.5 366 Z " /><path fill="rgb(0,0,0)" stroke="rgb(0,0,0)" stroke-width="1" opacity="0.807843137254902" d="M 203.5 367 L 210 367.5 L 203.5 368 L 203.5 367 Z " /><path fill="rgb(0,0,0)" stroke="rgb(0,0,0)" stroke-width="1" opacity="0.807843137254902" d="M 447.5 367 L 453 367.5 L 447.5 368 L 447.5 367 Z " /><path fill="rgb(0,0,0)" stroke="rgb(0,0,0)" stroke-width="1" opacity="0.807843137254902" d="M 190.5 368 L 196 368.5 L 190.5 369 L 190.5 368 Z " /><path fill="rgb(0,0,0)" stroke="rgb(0,0,0)" stroke-width="1" opacity="0.807843137254902" d="M 433.5 368 L 440 368.5 L 433.5 369 L 433.5 368 Z " /><path fill="rgb(0,0,0)" stroke="rgb(0,0,0)" stroke-width="1" opacity="0.807843137254902" d="M 176.5 369 L 183 369.5 L 176.5 370 L 176.5 369 Z " /><path fill="rgb(0,0,0)" stroke="rgb(0,0,0)" stroke-width="1" opacity="0.807843137254902" d="M 419.5 369 L 426 369.5 L 419.5 370 L 419.5 369 Z " /><path fill="rgb(0,0,0)" stroke="rgb(0,0,0)" stroke-width="1" opacity="0.807843137254902" d="M 162.5 370 L 169 370.5 L 162.5 371 L 162.5 370 Z " /><path fill="rgb(0,0,0)" stroke="rgb(0,0,0)" stroke-width="1" opacity="0.807843137254902" d="M 405.5 370 L 412 370.5 L 405.5 371 L 405.5 370 Z " /><path fill="rgb(0,0,0)" stroke="rgb(0,0,0)" stroke-width="1" opacity="0.807843137254902" d="M 148.5 371 L 155 371.5 L 148.5 372 L 148.5 371 Z " /><path fill="rgb(0,0,0)" stroke="rgb(0,0,0)" stroke-width="1" opacity="0.807843137254902" d="M 392.5 371 L 399 371.5 L 392.5 372 L 392.5 371 Z " /><path fill="rgb(0,0,0)" stroke="rgb(0,0,0)" stroke-width="1" opacity="0.807843137254902" d="M 135.5 372 L 141 372.5 L 135.5 373 L 135.5 372 Z " /><path fill="rgb(0,0,0)" stroke="rgb(0,0,0)" stroke-width="1" opacity="0.807843137254902" d="M 378.5 372 L 385 372.5 L 378.5 373 L 378.5 372 Z " /><path fill="rgb(0,0,0)" stroke="rgb(0,0,0)" stroke-width="1" opacity="0.807843137254902" d="M 121.5 373 L 128 373.5 L 121.5 374 L 121.5 373 Z " /><path fill="rgb(0,0,0)" stroke="rgb(0,0,0)" stroke-width="1" opacity="0.807843137254902" d="M 364.5 373 L 371 373.5 L 364.5 374 L 364.5 373 Z " /><path fill="rgb(0,0,0)" stroke="rgb(0,0,0)" stroke-width="1" opacity="0.807843137254902" d="M 107.5 374 L 114 374.5 L 107.5 375 L 107.5 374 Z " /><path fill="rgb(0,0,0)" stroke="rgb(0,0,0)" stroke-width="1" opacity="0.807843137254902" d="M 351.5 374 L 357 374.5 L 351.5 375 L 351.5 374 Z " /><path fill="rgb(0,0,0)" stroke="rgb(0,0,0)" stroke-width="1" opacity="0.807843137254902" d="M 93.5 375 L 100 375.5 L 93.5 376 L 93.5 375 Z " /><path fill="rgb(0,0,0)" stroke="rgb(0,0,0)" stroke-width="1" opacity="0.807843137254902" d="M 337.5 375 L 344 375.5 L 337.5 376 L 337.5 375 Z " /><path fill="rgb(0,0,0)" stroke="rgb(0,0,0)" stroke-width="1" opacity="0.807843137254902" d="M 79.5 376 L 86 376.5 L 79.5 377 L 79.5 376 Z " /><path fill="rgb(0,0,0)" stroke="rgb(0,0,0)" stroke-width="1" opacity="0.807843137254902" d="M 323.5 376 L 330 376.5 L 323.5 377 L 323.5 376 Z " /><path fill="rgb(0,0,0)" stroke="rgb(0,0,0)" stroke-width="1" opacity="0.807843137254902" d="M 66.5 377 L 73 377.5 L 66.5 378 L 66.5 377 Z " /><path fill="rgb(0,0,0)" stroke="rgb(0,0,0)" stroke-width="1" opacity="0.807843137254902" d="M 309.5 377 L 316 377.5 L 309.5 378 L 309.5 377 Z " /><path fill="rgb(0,0,0)" stroke="rgb(0,0,0)" stroke-width="1" opacity="0.807843137254902" d="M 52.5 378 L 59 378.5 L 52.5 379 L 52.5 378 Z " /><path fill="rgb(0,0,0)" stroke="rgb(0,0,0)" stroke-width="1" opacity="0.807843137254902" d="M 296.5 378 L 302 378.5 L 296.5 379 L 296.5 378 Z " /><path fill="rgb(0,0,0)" stroke="rgb(0,0,0)" stroke-width="1" opacity="0.807843137254902" d="M 38.5 379 L 45 379.5 L 38.5 380 L 38.5 379 Z " /><path fill="rgb(0,0,0)" stroke="rgb(0,0,0)" stroke-width="1" opacity="0.807843137254902" d="M 282.5 379 L 289 379.5 L 282.5 380 L 282.5 379 Z " /><path fill="rgb(0,0,0)" stroke="rgb(0,0,0)" stroke-width="1" opacity="0.807843137254902" d="M 24.5 380 L 31 380.5 L 24.5 381 L 24.5 380 Z " /><path fill="rgb(0,0,0)" stroke="rgb(0,0,0)" stroke-width="1" opacity="0.807843137254902" d="M 269 380 L 275 380.5 L 270 381 L 270 432.5 L 271.5 433 L 271.5 434 L 269 433.5 L 269 380 Z " /><path fill="rgb(0,0,0)" stroke="rgb(0,0,0)" stroke-width="1" opacity="0.807843137254902" d="M 240.5 382 L 247 382.5 L 240.5 383 L 240.5 382 Z " /><path fill="rgb(0,0,0)" stroke="rgb(0,0,0)" stroke-width="1" opacity="0.807843137254902" d="M 251.5 382 L 252 438 L 250 437.5 L 251 436.5 L 251.5 382 Z " /><path fill="rgb(0,0,0)" stroke="rgb(0,0,0)" stroke-width="1" opacity="0.807843137254902" d="M 227.5 383 L 233 383.5 L 227.5 384 L 227.5 383 Z " /><path fill="rgb(0,0,0)" stroke="rgb(0,0,0)" stroke-width="1" opacity="0.807843137254902" d="M 213.5 384 L 220 384.5 L 213.5 385 L 213.5 384 Z " /><path fill="rgb(0,0,0)" stroke="rgb(0,0,0)" stroke-width="1" opacity="0.807843137254902" d="M 199.5 385 L 206 385.5 L 199.5 386 L 199.5 385 Z " /><path fill="rgb(0,0,0)" stroke="rgb(0,0,0)" stroke-width="1" opacity="0.807843137254902" d="M 185.5 386 L 192 386.5 L 185.5 387 L 185.5 386 Z " /><path fill="rgb(0,0,0)" stroke="rgb(0,0,0)" stroke-width="1" opacity="0.807843137254902" d="M 172.5 387 L 178 387.5 L 172.5 388 L 172.5 387 Z " /><path fill="rgb(0,0,0)" stroke="rgb(0,0,0)" stroke-width="1" opacity="0.807843137254902" d="M 158.5 388 L 165 388.5 L 158.5 389 L 158.5 388 Z " /><path fill="rgb(0,0,0)" stroke="rgb(0,0,0)" stroke-width="1" opacity="0.807843137254902" d="M 144.5 389 L 151 389.5 L 144.5 390 L 144.5 389 Z " /><path fill="rgb(0,0,0)" stroke="rgb(0,0,0)" stroke-width="1" opacity="0.807843137254902" d="M 130.5 390 L 137 390.5 L 130.5 391 L 130.5 390 Z " /><path fill="rgb(0,0,0)" stroke="rgb(0,0,0)" stroke-width="1" opacity="0.807843137254902" d="M 0.5 391 L 1 393.5 L 0 393.5 L 0.5 391 Z " /><path fill="rgb(0,0,0)" stroke="rgb(0,0,0)" stroke-width="1" opacity="0.807843137254902" d="M 117.5 391 L 123 391.5 L 117.5 392 L 117.5 391 Z " /><path fill="rgb(0,0,0)" stroke="rgb(0,0,0)" stroke-width="1" opacity="0.807843137254902" d="M 103.5 392 L 110 392.5 L 103.5 393 L 103.5 392 Z " /><path fill="rgb(0,0,0)" stroke="rgb(0,0,0)" stroke-width="1" opacity="0.807843137254902" d="M 89.5 393 L 96 393.5 L 89.5 394 L 89.5 393 Z " /><path fill="rgb(0,0,0)" stroke="rgb(0,0,0)" stroke-width="1" opacity="0.807843137254902" d="M 75.5 394 L 82 394.5 L 75.5 395 L 75.5 394 Z " /><path fill="rgb(0,0,0)" stroke="rgb(0,0,0)" stroke-width="1" opacity="0.807843137254902" d="M 1.5 395 L 3.5 398 L 1.5 395 Z " /><path fill="rgb(0,0,0)" stroke="rgb(0,0,0)" stroke-width="1" opacity="0.807843137254902" d="M 62.5 395 L 68 395.5 L 62.5 396 L 62.5 395 Z " /><path fill="rgb(0,0,0)" stroke="rgb(0,0,0)" stroke-width="1" opacity="0.807843137254902" d="M 48.5 396 L 55 396.5 L 48.5 397 L 48.5 396 Z " /><path fill="rgb(0,0,0)" stroke="rgb(0,0,0)" stroke-width="1" opacity="0.807843137254902" d="M 34.5 397 L 41 397.5 L 34.5 398 L 34.5 397 Z " /><path fill="rgb(0,0,0)" stroke="rgb(0,0,0)" stroke-width="1" opacity="0.807843137254902" d="M 20.5 398 L 27 398.5 L 20.5 399 L 20.5 398 Z " /><path fill="rgb(0,0,0)" stroke="rgb(0,0,0)" stroke-width="1" opacity="0.807843137254902" d="M 7.5 399 L 13 399.5 L 7.5 400 L 7.5 399 Z " /><path fill="rgb(0,0,0)" stroke="rgb(0,0,0)" stroke-width="1" opacity="0.807843137254902" d="M 310.5 428 L 312.5 431 L 310.5 428 Z " /><path fill="rgb(0,0,0)" stroke="rgb(0,0,0)" stroke-width="1" opacity="0.807843137254902" d="M 312.5 440 L 309.5 444 L 308 443.5 L 312.5 440 Z " /><path fill="rgb(0,0,0)" stroke="rgb(0,0,0)" stroke-width="1" opacity="0.807843137254902" d="M 210.5 446 L 208.5 449 L 210.5 446 Z " /><path fill="rgb(0,0,0)" stroke="rgb(0,0,0)" stroke-width="1" opacity="0.807843137254902" d="M 210.5 460 L 211.5 462 L 210.5 460 Z " /><path fill="rgb(0,0,0)" stroke="rgb(0,0,0)" stroke-width="1" opacity="0.807843137254902" d="M 214.5 462 L 217 462.5 L 214.5 463 L 214.5 462 Z " /><path fill="rgb(0,0,0)" stroke="rgb(0,0,0)" stroke-width="1" opacity="0.996078431372549" d="M 17.5 68 L 18 380.5 L 19 381.5 L 17 380.5 L 17.5 68 Z " /><path fill="rgb(0,0,0)" stroke="rgb(0,0,0)" stroke-width="1" opacity="0.996078431372549" d="M 494.5 102 L 495 346.5 L 494 346.5 L 494.5 102 Z " /><path fill="rgb(0,0,0)" stroke="rgb(0,0,0)" stroke-width="1" opacity="0.996078431372549" d="M 185.5 115 L 186.5 117 L 185.5 115 Z " /><path fill="rgb(0,0,0)" stroke="rgb(0,0,0)" stroke-width="1" opacity="0.996078431372549" d="M 38.5 153 L 40.5 156 L 38.5 153 Z " /><path fill="rgb(0,0,0)" stroke="rgb(0,0,0)" stroke-width="1" opacity="0.996078431372549" d="M 38.5 207 L 39.5 209 L 38.5 207 Z " /><path fill="rgb(0,0,0)" stroke="rgb(0,0,0)" stroke-width="1" opacity="1" d="M 6.5 50 L 44.5 52 L 45.5 53 L 57.5 53 L 58.5 54 L 71.5 54 L 72.5 55 L 85.5 55 L 86.5 56 L 99.5 56 L 100.5 57 L 113.5 57 L 114.5 58 L 140.5 59 L 141.5 60 L 154.5 60 L 155.5 61 L 168.5 61 L 169.5 62 L 195.5 63 L 196.5 64 L 209.5 64 L 210.5 65 L 223.5 65 L 224.5 66 L 250.5 67 L 251.5 68 L 264.5 68 L 265.5 69 L 278.5 69 L 279.5 70 L 305.5 71 L 306.5 72 L 319.5 72 L 320.5 73 L 333.5 73 L 334.5 74 L 374.5 76 L 375.5 77 L 388.5 77 L 389.5 78 L 429.5 80 L 430.5 81 L 443.5 81 L 444.5 82 L 484.5 84 L 485.5 85 L 498.5 85 Q 500 87.5 505.5 86 L 510 89.5 L 512 95.5 L 512 354.5 L 507.5 362 L 499.5 364 L 486.5 364 L 485.5 365 L 473.5 365 L 472.5 366 L 459.5 366 L 458.5 367 L 445.5 367 L 444.5 368 L 431.5 368 L 430.5 369 L 418.5 369 L 417.5 370 L 404.5 370 L 403.5 371 L 390.5 371 L 389.5 372 L 377.5 372 L 376.5 373 L 363.5 373 L 362.5 374 L 349.5 374 L 348.5 375 L 335.5 375 L 334.5 376 L 322.5 376 L 321.5 377 L 308.5 377 L 307.5 378 L 294.5 378 L 293.5 379 L 269 380 L 269 433.5 L 272.5 434 L 306.5 427 L 313 431.5 L 314 437.5 L 309.5 443 L 218.5 462 L 213.5 462 L 208 457.5 L 207 452.5 L 211.5 446 L 252 438 L 252 382.5 L 251.5 382 L 239.5 382 L 238.5 383 L 211.5 384 L 210.5 385 L 198.5 385 L 197.5 386 L 184.5 386 L 183.5 387 L 156.5 388 L 155.5 389 L 143.5 389 L 142.5 390 L 129.5 390 L 128.5 391 L 115.5 391 L 114.5 392 L 101.5 392 L 100.5 393 L 88.5 393 L 87.5 394 L 74.5 394 L 73.5 395 L 60.5 395 L 59.5 396 L 33.5 397 L 32.5 398 L 6.5 399 L 2 395.5 L 0 389.5 L 0 59.5 L 3.5 52 L 6.5 50 Z M 17 68 L 17 381 L 19 382 L 20 381 L 60 379 L 61 378 L 74 378 L 75 377 L 102 376 L 103 375 L 115 375 L 116 374 L 129 374 L 130 373 L 170 371 L 171 370 L 184 370 L 185 369 L 198 369 L 199 368 L 225 367 L 226 366 L 252 365 L 253 364 L 267 364 L 268 363 L 322 360 L 323 359 L 335 359 L 336 358 L 391 355 L 392 354 L 404 354 L 405 353 L 446 351 L 447 350 L 459 350 L 460 349 L 473 349 L 474 348 L 487 348 L 488 347 L 495 347 L 495 347 L 495 102 L 459 100 L 458 99 L 445 99 L 444 98 L 431 98 L 430 97 L 417 97 L 416 96 L 404 96 L 403 95 L 390 95 L 389 94 L 376 94 L 375 93 L 362 93 L 361 92 L 349 92 L 348 91 L 335 91 L 334 90 L 321 90 L 320 89 L 307 89 L 306 88 L 294 88 L 293 87 L 280 87 L 279 86 L 266 86 L 265 85 L 252 85 L 251 84 L 239 84 L 238 83 L 225 83 L 224 82 L 211 82 L 210 81 L 197 81 L 196 80 L 184 80 L 183 79 L 170 79 L 169 78 L 156 78 L 155 77 L 142 77 L 141 76 L 129 76 L 128 75 L 87 73 L 86 72 L 74 72 L 73 71 L 60 71 L 59 70 L 17 68 Z " /><path fill="rgb(0,0,0)" stroke="rgb(0,0,0)" stroke-width="1" opacity="1" d="M 105.5 104 Q 112 103 114 106.5 Q 117 108.5 116 114.5 L 111.5 120 L 50.5 155 L 44.5 157 L 37 151.5 Q 35.7 143.2 40.5 141 L 105.5 104 Z " /><path fill="rgb(0,0,0)" stroke="rgb(0,0,0)" stroke-width="1" opacity="1" d="M 177.5 113 L 185 114 L 188 119.5 L 188 123.5 L 183.5 129 L 55.5 206 L 44.5 211 L 37 205.5 Q 35.6 196.2 41.5 194 L 177.5 113 Z " /></svg>